<svg width="20" height="20" viewBox="0 0 20 20" fill="none" xmlns="http://www.w3.org/2000/svg">
<g id="Group 58">
<g id="Vector 1">
<path d="M9.53488 0.0127754C5.6042 0.194663 0.310078 2.23358 0 3.34398C0.0775194 4.37507 0.0344803 6.14516 0.465116 7.8649C1.03979 10.1598 2.24806 11.9892 3.02326 13.3376C3.02326 13.3376 3.83055 12.4195 4.4186 11.9099C5.01602 11.3922 6.05168 10.7202 6.05168 10.7202C5.89492 10.0857 5.40555 9.15017 5.11628 8.10284C4.8887 7.27885 4.64944 6.1993 4.65116 5.72341C5.50388 5.24753 9.47444 4.29233 12.5581 4.77164C15.5307 5.23368 18.9147 7.07176 19.5349 8.10284L20 2.86809C18.4496 1.91632 13.7603 -0.182749 9.53488 0.0127754Z" fill="#999999"/>
<path d="M5.11628 12.6238C5.85384 12.106 6.74419 11.7513 7.2093 11.672C7.44186 11.9892 7.89658 12.5611 8.37209 13.0996C8.97481 13.7822 9.6124 14.3687 10 14.7653C10.3876 14.5273 11.5258 13.5689 12.3256 12.6238C13.9208 10.7388 14.5736 8.34079 15.1163 6.91313C15.5814 7.15107 16.4554 7.37239 17.2093 7.8649C17.915 8.32594 18.5271 8.89599 18.8372 9.29256C18.2946 10.4823 17.4118 13.1958 15.814 15.2411C13.9985 17.565 11.4729 19.2069 10 20C9.14729 19.5241 7.76199 18.7021 6.51163 17.6206C5.18655 16.4745 4.18605 15.0825 3.48837 14.2894C3.79845 13.9721 4.37492 13.1442 5.11628 12.6238Z" fill="#999999"/>
</g>
</g>
</svg>
