<svg width="22" height="20" viewBox="0 0 22 20" fill="none" xmlns="http://www.w3.org/2000/svg">
<g id="Group 36">
<path id="Vector" d="M10.8333 0.000773972C12.3138 0.000773972 13.719 0.321823 14.9832 0.89971L13.3964 2.40653C13.2045 2.59831 13.066 2.8368 12.9945 3.09846C12.9229 3.36012 12.9209 3.63592 12.9885 3.89862L13.0174 3.99757L13.2564 4.74072C12.4967 4.39041 11.6698 4.20957 10.8333 4.21072C7.63592 4.21072 5.04385 6.80332 5.04385 10.0001C5.04385 13.1975 7.63592 15.7895 10.8333 15.7895C14.0306 15.7895 16.6227 13.198 16.6227 10.0001C16.6227 9.28961 16.4948 8.60909 16.26 7.9791L17.6053 8.3612C18.1363 8.53856 18.6368 8.17436 19.0431 7.77963L19.11 7.71384L20.2258 6.55911C20.629 7.66148 20.8346 8.82633 20.8331 10.0001C20.8331 15.5232 16.3558 20 10.8333 20C5.31069 20 0.833374 15.5232 0.833374 10.0001C0.833374 4.47756 5.31069 0.000247701 10.8333 0.000247701V0.000773972ZM10.8333 5.79018C11.5069 5.79018 12.1432 5.94807 12.708 6.22964L10.1275 8.93803C9.67063 9.39434 9.81379 10.4343 10.3917 10.9822C10.9464 11.5085 12.1117 11.458 12.608 11.0491L12.6664 10.9964L14.8811 8.83751C15.1249 9.68611 15.0958 10.5899 14.7978 11.421C14.4998 12.2522 13.9481 12.9686 13.2207 13.469C12.4933 13.9695 11.6269 14.2285 10.7442 14.2096C9.86147 14.1907 9.00701 13.8948 8.30167 13.3637C7.59632 12.8326 7.07579 12.0932 6.81366 11.2501C6.55154 10.407 6.56111 9.50278 6.841 8.66539C7.12089 7.82799 7.65696 7.09977 8.37337 6.58371C9.08979 6.06766 9.95032 5.78987 10.8333 5.78965V5.79018ZM17.9521 0.150772C18.0083 0.206942 18.0506 0.275413 18.0758 0.35077L18.8074 2.5539L21.0084 3.28442C21.0912 3.31196 21.1655 3.3602 21.2244 3.42454C21.2833 3.48889 21.3248 3.56722 21.3449 3.65209C21.3651 3.73697 21.3632 3.82559 21.3395 3.90953C21.3158 3.99348 21.271 4.06998 21.2094 4.13178L18.2489 7.09279C18.1145 7.22744 17.9451 7.32192 17.7599 7.36562C17.5747 7.40932 17.381 7.4005 17.2005 7.34016L15.6311 6.8149L12.1438 10.3017C12.0736 10.3779 11.9888 10.4391 11.8943 10.4817C11.7999 10.5243 11.6979 10.5473 11.5943 10.5494C11.4908 10.5516 11.3879 10.5327 11.2918 10.4941C11.1957 10.4555 11.1084 10.3978 11.0351 10.3245C10.9619 10.2513 10.9042 10.164 10.8656 10.0679C10.8269 9.97183 10.8081 9.86891 10.8102 9.76536C10.8124 9.66181 10.8354 9.55976 10.878 9.46534C10.9206 9.37092 10.9818 9.28608 11.058 9.21592L14.5379 5.73649L14.0169 4.15756C13.9576 3.97746 13.9494 3.7844 13.9934 3.59993C14.0373 3.41547 14.1316 3.24683 14.2658 3.11284L17.2284 0.14972C17.3244 0.0538481 17.4546 0 17.5903 0C17.726 0 17.8561 0.0538481 17.9521 0.14972V0.150772Z" fill="#1890FF"/>
</g>
</svg>
