<svg width="20" height="20" viewBox="0 0 20 20" fill="none" xmlns="http://www.w3.org/2000/svg">
<g id="Group 39">
<path id="Vector" d="M15 5.72917C15 9.18096 12.4853 12.5 10 12.5C7.51471 12.5 5 9.18096 5 5.72917C5 2.27738 6.95 0 10 0C12.95 0 15 2.27738 15 5.72917Z" fill="#1890FF"/>
<path id="Vector_2" d="M4.16675 6.25C4.16675 6.58152 4.29844 6.89946 4.53286 7.13388C4.76729 7.3683 5.08523 7.5 5.41675 7.5C5.74827 7.5 6.06621 7.3683 6.30063 7.13388C6.53505 6.89946 6.66675 6.58152 6.66675 6.25C6.66675 5.91848 6.53505 5.60054 6.30063 5.36612C6.06621 5.1317 5.74827 5 5.41675 5C5.08523 5 4.76729 5.1317 4.53286 5.36612C4.29844 5.60054 4.16675 5.91848 4.16675 6.25Z" fill="#1890FF"/>
<path id="Vector_3" d="M13.3333 6.25C13.3333 6.58152 13.4649 6.89946 13.6994 7.13388C13.9338 7.3683 14.2517 7.5 14.5833 7.5C14.9148 7.5 15.2327 7.3683 15.4671 7.13388C15.7016 6.89946 15.8333 6.58152 15.8333 6.25C15.8333 5.91848 15.7016 5.60054 15.4671 5.36612C15.2327 5.1317 14.9148 5 14.5833 5C14.2517 5 13.9338 5.1317 13.6994 5.36612C13.4649 5.60054 13.3333 5.91848 13.3333 6.25Z" fill="#1890FF"/>
<path id="Vector_4" d="M12.9167 2.5H9.58333L10 0H12.9167C13.607 0 14.1667 0.559625 14.1667 1.25C14.1667 1.94037 13.607 2.5 12.9167 2.5ZM13.75 12.5H13.5363C13.0215 13.9564 11.6327 15 10 15C8.36725 15 6.9785 13.9564 6.46367 12.5H6.25C2.79821 12.5 0 15.2982 0 18.75C0 19.4404 0.559625 20 1.25 20H18.75C19.4404 20 20 19.4404 20 18.75C20 15.2982 17.2018 12.5 13.75 12.5ZM16.875 18.75H14.375C14.0298 18.75 13.75 18.4702 13.75 18.125C13.75 17.7798 14.0298 17.5 14.375 17.5H16.875C17.2202 17.5 17.5 17.7798 17.5 18.125C17.5 18.4702 17.2202 18.75 16.875 18.75Z" fill="#1890FF"/>
</g>
</svg>
