<svg width="23" height="20" viewBox="0 0 23 20" fill="none" xmlns="http://www.w3.org/2000/svg">
<g id="Group 37">
<path id="Vector" d="M14.5966 0.00144034H4.11572C3.25914 -0.0240958 2.42733 0.290785 1.80238 0.877152C1.17744 1.46352 0.81027 2.27361 0.78125 3.13007V10.4C0.797119 10.8196 0.896397 11.2319 1.07329 11.6127C1.25018 11.9936 1.50115 12.3353 1.81154 12.6181C2.12194 12.901 2.48555 13.1191 2.88116 13.2599C3.27676 13.4007 3.69644 13.4613 4.11572 13.4381H4.71674L4.72498 14.8295C4.7254 14.9743 4.76457 15.1163 4.8384 15.2408C4.91224 15.3653 5.01806 15.4678 5.14487 15.5376C5.26712 15.6093 5.4066 15.6463 5.5483 15.6446C5.69591 15.6434 5.84065 15.6037 5.9682 15.5293L8.32291 14.1379L9.50849 13.4381H14.5966C15.0162 13.4618 15.4364 13.4017 15.8325 13.2611C16.2285 13.1206 16.5926 12.9025 16.9035 12.6197C17.2143 12.3368 17.4657 11.9948 17.6428 11.6137C17.82 11.2326 17.9194 10.82 17.9352 10.4V3.13007C17.9049 2.27331 17.5368 1.46336 16.9112 0.877145C16.2857 0.290932 15.4536 -0.023894 14.5966 0.00144034ZM5.23544 7.85596C4.99118 7.85596 4.75241 7.78353 4.54932 7.64783C4.34622 7.51212 4.18793 7.31925 4.09446 7.09358C4.00098 6.86792 3.97653 6.6196 4.02418 6.38004C4.07183 6.14047 4.18945 5.92042 4.36217 5.7477C4.53489 5.57499 4.75494 5.45737 4.9945 5.40971C5.23407 5.36206 5.48238 5.38652 5.70805 5.47999C5.93371 5.57347 6.12659 5.73176 6.26229 5.93485C6.39799 6.13794 6.47042 6.37671 6.47042 6.62097C6.47042 6.94851 6.34031 7.26263 6.10871 7.49424C5.8771 7.72584 5.56298 7.85596 5.23544 7.85596ZM9.35206 7.85596C9.1078 7.85596 8.86903 7.78353 8.66594 7.64783C8.46285 7.51212 8.30456 7.31925 8.21108 7.09358C8.11761 6.86792 8.09315 6.6196 8.1408 6.38004C8.18846 6.14047 8.30608 5.92042 8.47879 5.7477C8.65151 5.57499 8.87156 5.45737 9.11113 5.40971C9.35069 5.36206 9.59901 5.38652 9.82467 5.47999C10.0503 5.57347 10.2432 5.73176 10.3789 5.93485C10.5146 6.13794 10.587 6.37671 10.587 6.62097C10.587 6.94851 10.4569 7.26263 10.2253 7.49424C9.99372 7.72584 9.6796 7.85596 9.35206 7.85596ZM13.4687 7.85596C13.2244 7.85596 12.9857 7.78353 12.7826 7.64783C12.5795 7.51212 12.4212 7.31925 12.3277 7.09358C12.2342 6.86792 12.2098 6.6196 12.2574 6.38004C12.3051 6.14047 12.4227 5.92042 12.5954 5.7477C12.7681 5.57499 12.9882 5.45737 13.2278 5.40971C13.4673 5.36206 13.7156 5.38652 13.9413 5.47999C14.167 5.57347 14.3598 5.73176 14.4955 5.93485C14.6312 6.13794 14.7037 6.37671 14.7037 6.62097C14.7037 6.94851 14.5736 7.26263 14.342 7.49424C14.1103 7.72584 13.7962 7.85596 13.4687 7.85596Z" fill="#1890FF"/>
<path id="Vector_2" d="M19.5819 7.41138C20.237 7.41138 20.8652 7.67161 21.3285 8.13482C21.7917 8.59803 22.0519 9.22627 22.0519 9.88135V15.4553C22.0281 16.1795 21.7219 16.8658 21.1988 17.3673C20.6757 17.8689 19.9772 18.1459 19.2526 18.1393L19.2444 19.1767C19.243 19.3224 19.2035 19.4651 19.1299 19.5908C19.0562 19.7165 18.9509 19.8207 18.8245 19.893C18.7007 19.9609 18.5622 19.9977 18.421 20C18.2734 19.9988 18.1287 19.9591 18.0011 19.8847L15.0619 18.1393H12.8702C12.0982 18.1047 11.3703 17.7699 10.8416 17.2064C10.3128 16.6429 10.0251 15.8952 10.0396 15.1226V14.9802L15.6341 14.972C16.1341 14.9999 16.6347 14.9279 17.1066 14.7601C17.5785 14.5924 18.0122 14.3323 18.3825 13.995C18.7527 13.6577 19.052 13.2501 19.2629 12.7958C19.4738 12.3415 19.592 11.8498 19.6107 11.3493L19.5819 7.41138Z" fill="#1890FF"/>
</g>
</svg>
