<svg width="20" height="19" viewBox="0 0 20 19" fill="none" xmlns="http://www.w3.org/2000/svg">
<g id="Group 37">
<path id="Vector" d="M12.9901 0.0013543H3.13528C2.32987 -0.0226564 1.54775 0.273415 0.960137 0.824756C0.372523 1.3761 0.0272862 2.13779 0 2.9431V9.77879C0.0149213 10.1733 0.108268 10.561 0.274594 10.919C0.44092 11.2771 0.676895 11.5985 0.968749 11.8644C1.2606 12.1303 1.60249 12.3354 1.97447 12.4678C2.34644 12.6002 2.74106 12.6571 3.13528 12.6354H3.70041L3.70815 13.9437C3.70855 14.0798 3.74537 14.2133 3.8148 14.3304C3.88423 14.4475 3.98372 14.5438 4.10296 14.6094C4.21791 14.6768 4.34905 14.7116 4.48229 14.7101C4.62109 14.7089 4.75718 14.6716 4.87711 14.6017L7.09116 13.2934L8.20592 12.6354H12.9901C13.3847 12.6577 13.7797 12.6011 14.1521 12.469C14.5246 12.3369 14.8669 12.1318 15.1592 11.8658C15.4514 11.5999 15.6878 11.2783 15.8543 10.92C16.0209 10.5616 16.1144 10.1737 16.1293 9.77879V2.9431C16.1008 2.13752 15.7547 1.37594 15.1665 0.824749C14.5783 0.273553 13.7959 -0.0224667 12.9901 0.0013543ZM4.18812 7.38668C3.95845 7.38668 3.73394 7.31858 3.54298 7.19098C3.35202 7.06339 3.20318 6.88203 3.11529 6.66985C3.0274 6.45766 3.00441 6.22418 3.04921 5.99893C3.09402 5.77367 3.20461 5.56676 3.36701 5.40437C3.52941 5.24197 3.73632 5.13137 3.96158 5.08657C4.18683 5.04176 4.42031 5.06476 4.63249 5.15265C4.84468 5.24054 5.02604 5.38937 5.15363 5.58033C5.28123 5.77129 5.34933 5.9958 5.34933 6.22547C5.34933 6.53344 5.22699 6.8288 5.00922 7.04657C4.79145 7.26434 4.49609 7.38668 4.18812 7.38668ZM8.05884 7.38668C7.82917 7.38668 7.60466 7.31858 7.4137 7.19098C7.22274 7.06339 7.0739 6.88203 6.98601 6.66985C6.89812 6.45766 6.87513 6.22418 6.91993 5.99893C6.96474 5.77367 7.07533 5.56676 7.23773 5.40437C7.40013 5.24197 7.60704 5.13137 7.83229 5.08657C8.05755 5.04176 8.29103 5.06476 8.50321 5.15265C8.7154 5.24054 8.89676 5.38937 9.02435 5.58033C9.15195 5.77129 9.22005 5.9958 9.22005 6.22547C9.22005 6.53344 9.09771 6.8288 8.87994 7.04657C8.66217 7.26434 8.36681 7.38668 8.05884 7.38668ZM11.9296 7.38668C11.6999 7.38668 11.4754 7.31858 11.2844 7.19098C11.0935 7.06339 10.9446 6.88203 10.8567 6.66985C10.7688 6.45766 10.7458 6.22418 10.7907 5.99893C10.8355 5.77367 10.9461 5.56676 11.1084 5.40437C11.2708 5.24197 11.4778 5.13137 11.703 5.08657C11.9283 5.04176 12.1617 5.06476 12.3739 5.15265C12.5861 5.24054 12.7675 5.38937 12.8951 5.58033C13.0227 5.77129 13.0908 5.9958 13.0908 6.22547C13.0908 6.53344 12.9684 6.8288 12.7507 7.04657C12.5329 7.26434 12.2375 7.38668 11.9296 7.38668Z" fill="#999999"/>
<path id="Vector_2" d="M17.6779 6.96875C18.2938 6.96875 18.8846 7.21343 19.3201 7.64897C19.7556 8.08451 20.0003 8.67523 20.0003 9.29118V14.5321C19.9779 15.2132 19.69 15.8584 19.1982 16.33C18.7064 16.8016 18.0496 17.0621 17.3682 17.0558L17.3605 18.0313C17.3592 18.1682 17.3221 18.3025 17.2529 18.4206C17.1836 18.5388 17.0846 18.6368 16.9657 18.7048C16.8493 18.7687 16.7191 18.8032 16.5864 18.8054C16.4476 18.8043 16.3115 18.7669 16.1915 18.697L13.4278 17.0558H11.3671C10.6412 17.0233 9.95682 16.7085 9.45967 16.1787C8.96251 15.6489 8.69192 14.9458 8.70557 14.2194V14.0855L13.9659 14.0777C14.4361 14.104 14.9067 14.0362 15.3505 13.8785C15.7942 13.7208 16.202 13.4762 16.5501 13.1591C16.8982 12.842 17.1796 12.4587 17.3779 12.0315C17.5762 11.6044 17.6874 11.1421 17.705 10.6715L17.6779 6.96875Z" fill="#999999"/>
</g>
</svg>
