<svg width="20" height="20" viewBox="0 0 20 20" fill="none" xmlns="http://www.w3.org/2000/svg">
<g id="Group 36">
<path id="Vector" d="M9.7439 0.000773972C11.1865 0.000773972 12.5558 0.321823 13.7876 0.89971L12.2414 2.40653C12.0545 2.59831 11.9195 2.8368 11.8498 3.09846C11.7801 3.36012 11.7781 3.63592 11.844 3.89862L11.8722 3.99757L12.105 4.74072C11.3647 4.39041 10.5591 4.20957 9.7439 4.21072C6.62842 4.21072 4.1027 6.80332 4.1027 10.0001C4.1027 13.1975 6.62842 15.7895 9.7439 15.7895C12.8594 15.7895 15.3851 13.198 15.3851 10.0001C15.3851 9.28961 15.2605 8.60909 15.0318 7.9791L16.3426 8.3612C16.86 8.53856 17.3477 8.17436 17.7436 7.77963L17.8088 7.71384L18.896 6.55911C19.2889 7.66148 19.4892 8.82633 19.4878 10.0001C19.4878 15.5232 15.1251 20 9.7439 20C4.3627 20 0 15.5232 0 10.0001C0 4.47756 4.3627 0.000247701 9.7439 0.000247701V0.000773972ZM9.7439 5.79018C10.4003 5.79018 11.0204 5.94807 11.5706 6.22964L9.05619 8.93803C8.61104 9.39434 8.75054 10.4343 9.31363 10.9822C9.85416 11.5085 10.9896 11.458 11.4732 11.0491L11.5301 10.9964L13.6881 8.83751C13.9257 9.68611 13.8973 10.5899 13.607 11.421C13.3166 12.2522 12.779 12.9686 12.0702 13.469C11.3614 13.9695 10.5173 14.2285 9.65713 14.2096C8.79699 14.1907 7.96441 13.8948 7.27712 13.3637C6.58983 12.8326 6.08262 12.0932 5.82721 11.2501C5.5718 10.407 5.58112 9.50278 5.85385 8.66539C6.12657 7.82799 6.64891 7.09977 7.34699 6.58371C8.04507 6.06766 8.88357 5.78987 9.7439 5.78965V5.79018ZM16.6805 0.150772C16.7353 0.206942 16.7765 0.275413 16.801 0.35077L17.5139 2.5539L19.6586 3.28442C19.7392 3.31196 19.8117 3.3602 19.8691 3.42454C19.9265 3.48889 19.9669 3.56722 19.9865 3.65209C20.0061 3.73697 20.0043 3.82559 19.9812 3.90953C19.9581 3.99348 19.9145 4.06998 19.8545 4.13178L16.9698 7.09279C16.8388 7.22744 16.6737 7.32192 16.4933 7.36562C16.3128 7.40932 16.1241 7.4005 15.9482 7.34016L14.4189 6.8149L11.0209 10.3017C10.9525 10.3779 10.8698 10.4391 10.7778 10.4817C10.6858 10.5243 10.5864 10.5473 10.4855 10.5494C10.3846 10.5516 10.2843 10.5327 10.1907 10.4941C10.097 10.4555 10.012 10.3978 9.94063 10.3245C9.86927 10.2513 9.81307 10.164 9.77541 10.0679C9.73775 9.97183 9.71941 9.86891 9.72149 9.76536C9.72357 9.66181 9.74602 9.55976 9.7875 9.46534C9.82899 9.37092 9.88864 9.28608 9.96288 9.21592L13.3538 5.73649L12.8461 4.15756C12.7882 3.97746 12.7803 3.7844 12.8231 3.59993C12.8659 3.41547 12.9579 3.24683 13.0886 3.11284L15.9754 0.14972C16.0689 0.0538481 16.1957 0 16.328 0C16.4602 0 16.587 0.0538481 16.6805 0.14972V0.150772Z" fill="#999999"/>
</g>
</svg>
