<svg width="64" height="64" viewBox="0 0 64 64" fill="none" xmlns="http://www.w3.org/2000/svg">
<path d="M30.5116 0.0408813C17.9334 0.622921 0.992248 7.14745 0 10.7007C0.248062 14.0002 0.110337 19.6645 1.48837 25.1677C3.32732 32.5115 7.1938 38.3656 9.67442 42.6803C9.67442 42.6803 12.2578 39.7425 14.1395 38.1118C16.0513 36.4551 19.3654 34.3047 19.3654 34.3047C18.8637 32.2743 17.2978 29.2805 16.3721 25.9291C15.6438 23.2923 14.8782 19.8378 14.8837 18.3149C17.6124 16.7921 30.3182 13.7354 40.186 15.2692C49.6982 16.7478 60.5271 22.6296 62.5116 25.9291L64 9.1779C59.0388 6.13223 44.0328 -0.584796 30.5116 0.0408813Z" fill="#1890FF"/>
<path d="M16.3721 40.396C18.7323 38.7392 21.5814 37.6042 23.0698 37.3504C23.814 38.3656 25.2691 40.1956 26.7907 41.9189C28.7194 44.1031 30.7597 45.9798 32 47.2488C33.2403 46.4874 36.8825 43.4204 39.4419 40.396C44.5464 34.3641 46.6357 26.6905 48.3721 22.122C49.8605 22.8834 52.6573 23.5916 55.0698 25.1677C57.3281 26.643 59.2868 28.4672 60.2791 29.7362C58.5426 33.5433 55.7177 42.2267 50.6047 48.7716C44.7953 56.208 36.7132 61.4619 32 64C29.2713 62.4772 24.8384 59.8466 20.8372 56.3858C16.597 52.7183 13.3953 48.264 11.1628 45.726C12.155 44.7107 13.9998 42.0614 16.3721 40.396Z" fill="#1890FF"/>
</svg>
